# xmcd CD database file
#
# Track frame offsets:
#	150
#	6985
#	19559
#	26252
#	40590
#	52751
#	68935
#	80955
#	94551
#	104544
#	118360
#	124621
#	134215
#	145820
#
# Disc length: 2025 seconds
#
# Revision: 0
# Processed by: cddbd v1.5.2PL0 Copyright (c) Steve Scherf et al.
# Submitted via: CDex 1.70beta2
#
DISCID=bd07e70e
DTITLE=Skuli Sverrisson og Oskar Gudjonsson - After Silence
DYEAR=2002
DGENRE=Jazz
TTITLE0=Frid
TTITLE1=Hvitar
TTITLE2=Hun
TTITLE3=Amedeo
TTITLE4=Koma
TTITLE5=Mammamma
TTITLE6=Dimmalimm
TTITLE7=Okkar a Milli
TTITLE8=Anna Kvedur
TTITLE9=Hofnun
TTITLE10=Saetti
TTITLE11=Systur
TTITLE12=Min Ro
TTITLE13=Nafni
EXTD=YEAR: 2002
EXTT0=
EXTT1=
EXTT2=
EXTT3=
EXTT4=
EXTT5=
EXTT6=
EXTT7=
EXTT8=
EXTT9=
EXTT10=
EXTT11=
EXTT12=
EXTT13=
PLAYORDER=
